<?xml version="1.0" encoding="utf-8"?>
<!-- Generator: Adobe Illustrator 24.2.1, SVG Export Plug-In . SVG Version: 6.00 Build 0)  -->
<svg version="1.1" id="Capa_1" xmlns="http://www.w3.org/2000/svg" xmlns:xlink="http://www.w3.org/1999/xlink" x="0px" y="0px"
	 viewBox="0 0 548.8 183.8" style="enable-background:new 0 0 548.8 183.8;" xml:space="preserve">
<style type="text/css">
	.st0{fill:url(#SVGID_1_);}
	.st1{fill:#FFFFFF;}
	.st2{fill:#05299E;}
	.st3{fill:url(#SVGID_2_);}
	.st4{fill:#5C5B5F;}
</style>
<g id="Capa_2_1_">
	<g id="Capa_1-2">
		
			<radialGradient id="SVGID_1_" cx="81.7" cy="375.7" r="81.7" gradientTransform="matrix(1 0 0 1 0 -294)" gradientUnits="userSpaceOnUse">
			<stop  offset="0" style="stop-color:#E12B2C"/>
			<stop  offset="0.9" style="stop-color:#A5171B"/>
			<stop  offset="1" style="stop-color:#9E1519"/>
		</radialGradient>
		<path class="st0" d="M163.4,81.7c0,45.1-36.6,81.7-81.7,81.7S0,126.8,0,81.7S36.6,0,81.7,0l0,0C126.8,0,163.4,36.6,163.4,81.7z"/>
		<path class="st1" d="M140.1,46.3c-2.1-2.8-5.3-4.4-8.8-4.5c-3.6,0-7.3,2.4-11,7.2c-3.4,4.8-6.3,9.9-8.6,15.2
			c-2.1,4.5-4.2,9-6.2,13.5c-2.4-5.2-4.9-10.4-7.2-15.7c-6.5-13.5-12.7-20.3-18.6-20.3c-3.5,0-6.7,1.7-8.8,4.5
			c-2.4,2.9-3.7,6.6-3.7,10.4c6.8,3.5,12.3,9,15.9,15.8v-0.9c2,4.6,4.1,9.1,6.2,13.6c5.6,11.7,10.9,17.6,16.1,17.6
			S116,96.8,121.7,85c1.6-3.5,3.6-8,6.1-13.5v48h16V57.1C143.9,53.2,142.6,49.4,140.1,46.3z"/>
		<path class="st1" d="M49.8,41.3v16.3c0,0-22.6,0.7-22.8,21.5c-0.2,22.6,22.1,25.1,22.1,25.1v16.2c0,0-39.8-0.4-40.2-41.5
			C8.5,41.3,49.8,41.3,49.8,41.3z"/>
		<polygon class="st1" points="47.7,73.4 80.7,73.3 80.5,119.6 65.9,119.6 65.8,90.6 47.7,90.3 		"/>
		<path class="st2" d="M222.6,90.7h-10.9c-2.8,0-5.5-0.9-7.6-2.8c-2-1.5-3.2-3.9-3.3-6.5v-1.8c0-1.5,0.9-2.3,2.6-2.3h5.5
			c1.8,0,2.7,0.8,2.7,2.3v1.8h10.9v-11h-10.9c-2.8,0-5.5-0.9-7.6-2.8c-2-1.5-3.2-3.9-3.3-6.5V50c0-2.5,1.3-4.9,3.3-6.4
			c2.1-1.8,4.8-2.8,7.6-2.8h10.9c2.8,0,5.5,1,7.6,2.8c2,1.5,3.2,3.9,3.3,6.4v1.5c0,1.5-0.9,2.3-2.7,2.3h-5.5c-1.8,0-2.7-0.8-2.7-2.3
			V50h-10.9v11.1h10.9c2.8,0,5.5,0.9,7.6,2.8c2,1.5,3.2,3.9,3.3,6.4v11.2c0,2.6-1.2,4.9-3.3,6.5C228.1,89.8,225.4,90.7,222.6,90.7z"
			/>
		<path class="st2" d="M261.9,90.7h-12.4c-2.8,0-5.4-0.9-7.5-2.7c-2-1.5-3.2-3.9-3.3-6.4V50c0-2.5,1.2-4.9,3.3-6.4
			c2.1-1.8,4.8-2.8,7.6-2.8h12.3c2.8,0,5.5,1,7.6,2.8c2,1.5,3.2,3.9,3.3,6.4v31.5c0,2.6-1.3,5-3.3,6.5
			C267.3,89.8,264.7,90.7,261.9,90.7z M261.9,81.5V50h-12.4v31.5H261.9z"/>
		<path class="st2" d="M302.2,90.7h-13.9c-2.7,0.1-5.3-0.8-7.4-2.6c-1.9-1.5-3-3.8-3-6.2V43.1c0-1.5,0.9-2.3,2.7-2.3h5.5
			c1.8,0,2.7,0.8,2.7,2.3v38.4h13.3c1.8,0,2.6,0.8,2.6,2.3v4.6C304.9,89.9,304,90.7,302.2,90.7z"/>
		<path class="st2" d="M332.9,90.7H321c-2.8,0-5.5-0.9-7.6-2.8c-2-1.5-3.2-3.9-3.3-6.4V43.1c0-1.5,0.9-2.3,2.7-2.3h5.5
			c1.8,0,2.7,0.8,2.7,2.3v38.4h12.1V43.1c0-1.5,0.9-2.3,2.7-2.3h5.5c1.8,0,2.7,0.8,2.7,2.3v38.3c0,2.6-1.3,5-3.4,6.5
			C338.5,89.8,335.7,90.7,332.9,90.7z"/>
		<path class="st2" d="M378.3,88.5c-2,1.4-4.3,2.2-6.8,2.2H360c-2.8,0.1-5.5-0.9-7.6-2.7c-2-1.5-3.2-3.9-3.3-6.4V50
			c0-2.5,1.3-4.9,3.3-6.4c2.1-1.8,4.8-2.8,7.6-2.8h11.5c2.8,0,5.5,1,7.6,2.8c2.1,1.5,3.3,3.9,3.3,6.4v1.5c0,1.5-0.9,2.3-2.7,2.3
			h-5.5c-1.8,0-2.6-0.8-2.6-2.3V50H360v31.5h11.7v-1.8c0-1.5,0.9-2.3,2.6-2.3h5.5c1.8,0,2.7,0.8,2.7,2.3v1.8
			C382.5,84.2,381.1,86.5,378.3,88.5z"/>
		<path class="st2" d="M395.9,90.7h-5.5c-1.8,0-2.7-0.8-2.7-2.3V43.1c0-1.5,0.9-2.3,2.7-2.3h5.5c1.8,0,2.7,0.8,2.7,2.3v45.3
			C398.5,89.9,397.7,90.7,395.9,90.7z"/>
		<path class="st2" d="M427,90.7h-12.4c-2.8,0.1-5.5-0.9-7.6-2.7c-2-1.5-3.2-3.9-3.3-6.4V50c0-2.5,1.3-4.9,3.3-6.4
			c2.1-1.8,4.8-2.8,7.6-2.8H427c2.8,0,5.5,1,7.6,2.8c2,1.5,3.3,3.9,3.3,6.4v31.5c0,2.5-1.3,4.9-3.3,6.4
			C432.5,89.8,429.8,90.7,427,90.7z M427,81.5V50h-12.4v31.5H427z"/>
		<path class="st2" d="M465,89.2l-11.2-24.7v23.8c0,1.5-0.9,2.3-2.7,2.3h-5.4c-1.8,0-2.7-0.8-2.7-2.3V43.1c0-1.5,0.9-2.3,2.7-2.3
			h7.1c1.1-0.1,2.1,0.5,2.5,1.5L466.6,67V43.1c0-1.5,0.9-2.3,2.7-2.3h5.4c1.8,0,2.7,0.8,2.7,2.3v45.3c0,1.5-0.9,2.3-2.6,2.3h-7.1
			C466.5,90.8,465.5,90.2,465,89.2z"/>
		<path class="st2" d="M508.2,90.7h-15.3c-2.7,0.1-5.2-0.9-7.3-2.6c-1.9-1.5-3-3.8-3-6.2V43.1c0-1.5,0.9-2.3,2.7-2.3H508
			c1.8,0,2.7,0.8,2.7,2.3v4.7c0,1.5-0.9,2.3-2.7,2.3h-14.6v11.1h12.1c1.8,0,2.7,0.8,2.7,2.3v4.7c0,1.5-0.9,2.3-2.7,2.3h-12.1v11.1
			h14.8c1.8,0,2.7,0.8,2.7,2.3v4.6C510.9,89.9,510,90.7,508.2,90.7z"/>
		<path class="st2" d="M537.9,90.7H527c-2.8,0.1-5.5-0.9-7.7-2.7c-2-1.5-3.2-3.9-3.3-6.5v-1.8c0-1.5,0.9-2.3,2.7-2.3h5.5
			c1.8,0,2.7,0.8,2.7,2.3v1.8h10.9V70.4H527c-2.8,0-5.5-0.9-7.6-2.8c-2-1.5-3.2-3.9-3.3-6.5V50c0-2.5,1.3-4.9,3.3-6.4
			c2.1-1.8,4.8-2.8,7.6-2.8h10.9c2.8,0,5.5,1,7.6,2.8c2,1.5,3.2,3.9,3.2,6.4v1.5c0,1.5-0.9,2.3-2.7,2.3h-5.5c-1.8,0-2.7-0.8-2.7-2.3
			V50h-10.9v11.1h10.9c2.8,0,5.5,0.9,7.6,2.8c2,1.5,3.2,3.9,3.3,6.4v11.2c0,2.6-1.2,4.9-3.3,6.5C543.3,89.8,540.6,90.7,537.9,90.7z"
			/>
		<path class="st1" d="M227.1,101c0.5,0,0.9,0.3,1.2,0.7c0.6,1.1,0.6,2.4,0,3.4c-0.2,0.4-0.6,0.7-1.1,0.8h-7.1
			c-0.6,0-1.3,0.3-1.7,0.8c-0.5,0.4-0.8,1-1.1,1.6s-0.4,1.3-0.5,2s-0.1,1.3-0.1,2v8.8c0,0.6-0.2,1.2-0.5,1.8
			c-0.3,0.7-1.2,0.9-1.8,0.6c-0.2-0.1-0.4-0.3-0.6-0.6c-0.3-0.5-0.5-1.1-0.5-1.8v-8.8c0-1.1,0.1-2.2,0.3-3.2s0.5-2.1,0.8-3.1H203
			c-0.5,0-1-0.3-1.2-0.7c-0.3-0.5-0.5-1.1-0.5-1.8c0-0.6,0.2-1.2,0.5-1.8c0.2-0.4,0.7-0.7,1.2-0.8L227.1,101L227.1,101z"/>
		<path class="st1" d="M239.6,106c-0.7,0-1.4,0.2-2,0.6c-0.5,0.4-0.9,1-1.2,1.6s-0.5,1.3-0.6,2c-0.2,1.3-0.2,2.7,0,4.1
			c0.1,0.7,0.3,1.4,0.6,2s0.7,1.1,1.2,1.6c0.6,0.4,1.3,0.7,2,0.6h19.3c0.5,0,1,0.3,1.2,0.7c0.3,0.5,0.5,1.1,0.5,1.8
			c0,0.6-0.1,1.2-0.5,1.8c-0.2,0.4-0.7,0.7-1.2,0.7h-20.5c-1,0-1.9-0.3-2.6-1c-0.8-0.8-1.4-1.7-1.9-2.7c-0.6-1.2-1-2.4-1.2-3.6
			c-0.6-2.6-0.6-5.3,0-7.9c0.3-1.3,0.7-2.5,1.3-3.6c0.5-1,1.2-1.9,2-2.7c0.7-0.7,1.7-1,2.7-1h20.2c0.5,0,0.9,0.3,1.2,0.7
			c0.3,0.5,0.5,1.1,0.5,1.8c0,0.6-0.1,1.2-0.5,1.8c-0.2,0.4-0.7,0.7-1.2,0.7H239.6z M258.6,110.5c0.7,1.1,0.7,2.4,0,3.5
			c-0.2,0.4-0.7,0.7-1.2,0.7h-17.5c-0.5,0-0.9-0.3-1.2-0.7c-0.7-1.1-0.7-2.4,0-3.5c0.2-0.4,0.7-0.7,1.2-0.7h17.5
			C257.9,109.8,258.4,110.1,258.6,110.5L258.6,110.5z"/>
		<path class="st1" d="M263.2,112.3c0-1.3,0.1-2.6,0.4-3.9s0.7-2.5,1.3-3.6c0.5-1,1.2-1.9,2-2.7c0.7-0.7,1.7-1,2.7-1h20.5
			c0.5,0,0.9,0.3,1.2,0.7c0.3,0.5,0.5,1.1,0.5,1.8c0,0.6-0.2,1.2-0.5,1.8c-0.2,0.4-0.7,0.7-1.2,0.7h-19.7c-0.7,0-1.4,0.2-2,0.6
			c-0.5,0.4-0.9,1-1.2,1.6c-0.3,0.6-0.5,1.3-0.6,2c-0.2,1.3-0.2,2.7,0,4.1c0.1,0.7,0.3,1.4,0.6,2c0.3,0.6,0.7,1.1,1.2,1.6
			c0.6,0.5,1.3,0.7,2,0.6h19.7c0.5,0,1,0.3,1.2,0.7c0.3,0.5,0.5,1.1,0.5,1.8c0,0.6-0.2,1.2-0.5,1.8c-0.2,0.4-0.7,0.7-1.2,0.7h-20.8
			c-1,0-1.9-0.3-2.6-1c-0.8-0.8-1.4-1.7-1.9-2.7c-0.6-1.2-1-2.4-1.2-3.6C263.4,114.9,263.2,113.6,263.2,112.3z"/>
		<path class="st1" d="M319.1,110.2c-0.1-0.7-0.3-1.4-0.6-2c-0.3-0.6-0.7-1.1-1.2-1.6c-0.6-0.4-1.3-0.7-2-0.6h-12.6
			c-0.7,0-1.4,0.2-2,0.6c-0.5,0.4-0.9,1-1.2,1.6c-0.3,0.6-0.5,1.3-0.6,2s-0.1,1.3-0.1,2v8.8c0,0.6-0.2,1.2-0.5,1.8
			c-0.3,0.7-1.1,0.9-1.8,0.6c-0.2-0.1-0.4-0.3-0.6-0.6c-0.3-0.5-0.5-1.1-0.5-1.8v-8.8c0-1.3,0.1-2.6,0.4-3.9s0.7-2.5,1.3-3.6
			c0.5-1,1.2-1.9,2-2.7c0.7-0.7,1.7-1,2.7-1h14.7c1,0.1,1.9,0.5,2.6,1.2c0.8,0.8,1.4,1.7,1.9,2.7c0.5,1.1,1,2.3,1.2,3.6
			c0.3,1.3,0.4,2.6,0.4,3.9v8.8c0,0.6-0.1,1.2-0.5,1.8c-0.3,0.7-1.2,0.9-1.8,0.6c-0.2-0.1-0.4-0.3-0.6-0.6c-0.3-0.5-0.5-1.1-0.5-1.8
			v-8.8C319.2,111.6,319.2,110.9,319.1,110.2z"/>
		<path class="st1" d="M354.7,112.3c0,1.3-0.1,2.7-0.4,4s-0.7,2.5-1.3,3.6c-0.5,1-1.2,1.9-2,2.7c-0.7,0.7-1.7,1-2.7,1h-16
			c-1-0.1-1.9-0.5-2.6-1.2c-0.8-0.8-1.4-1.7-1.9-2.7c-0.5-1.1-1-2.3-1.2-3.6c-0.6-2.6-0.6-5.2,0-7.8c0.3-1.3,0.7-2.5,1.3-3.6
			c0.5-1,1.2-1.9,2-2.7c0.7-0.7,1.7-1,2.7-1h16c1,0.1,1.9,0.5,2.6,1.2c0.8,0.8,1.4,1.7,1.9,2.7c0.5,1.1,1,2.3,1.2,3.6
			C354.5,109.7,354.7,111,354.7,112.3z M349.5,117.9c0.5-0.4,0.9-1,1.2-1.6c0.3-0.6,0.5-1.3,0.6-2c0.2-1.3,0.2-2.7,0-4.1
			c-0.1-0.7-0.3-1.4-0.6-2c-0.3-0.6-0.7-1.1-1.2-1.6c-0.6-0.4-1.3-0.7-2-0.6h-14.1c-0.7,0-1.4,0.2-2,0.6c-0.5,0.4-0.9,1-1.2,1.6
			c-0.3,0.6-0.5,1.3-0.6,2c-0.2,1.3-0.2,2.7,0,4.1c0.1,0.7,0.3,1.4,0.6,2c0.3,0.6,0.7,1.1,1.2,1.6c0.6,0.4,1.3,0.7,2,0.6h14.2
			C348.2,118.6,348.9,118.4,349.5,117.9z"/>
		<path class="st1" d="M361.1,123c-0.6-0.4-1.1-0.9-1.5-1.5c-0.4-0.7-0.8-1.4-1-2.2c-0.3-0.9-0.4-1.8-0.4-2.7v-13.2
			c0-0.6,0.2-1.2,0.5-1.8c0.2-0.4,0.7-0.7,1.2-0.7s0.9,0.3,1.2,0.7c0.3,0.5,0.5,1.1,0.5,1.8v13.2c0,0.5,0.1,0.9,0.4,1.3
			c0.2,0.3,0.5,0.5,0.9,0.6H384c0.5,0,1,0.3,1.2,0.7c0.3,0.5,0.5,1.1,0.5,1.8c0,0.6-0.2,1.2-0.5,1.8c-0.2,0.4-0.7,0.7-1.2,0.7h-21
			C362.3,123.5,361.7,123.3,361.1,123z"/>
		<path class="st1" d="M416.9,112.3c0,1.3-0.1,2.7-0.4,4s-0.7,2.5-1.3,3.6c-0.5,1-1.2,1.9-2,2.7c-0.7,0.7-1.7,1-2.7,1h-16
			c-1-0.1-1.9-0.5-2.6-1.2c-0.8-0.8-1.4-1.7-1.9-2.7c-0.6-1.1-1-2.3-1.2-3.6c-0.6-2.6-0.6-5.2,0-7.8c0.3-1.3,0.7-2.5,1.3-3.6
			c0.5-1,1.2-1.9,2-2.7c0.7-0.7,1.7-1,2.7-1h16c1,0.1,1.9,0.5,2.6,1.2c0.8,0.8,1.4,1.7,1.9,2.7c0.5,1.1,1,2.3,1.2,3.6
			C416.7,109.7,416.8,111,416.9,112.3z M411.6,117.9c0.5-0.4,0.9-1,1.2-1.6c0.3-0.6,0.5-1.3,0.6-2c0.2-1.3,0.2-2.7,0-4.1
			c-0.1-0.7-0.3-1.4-0.6-2c-0.3-0.6-0.7-1.2-1.2-1.6c-0.6-0.4-1.3-0.7-2-0.6h-14.1c-0.7,0-1.4,0.2-2,0.6c-0.5,0.4-0.9,1-1.2,1.6
			c-0.3,0.6-0.5,1.3-0.6,2c-0.2,1.3-0.2,2.7,0,4.1c0.1,0.7,0.3,1.4,0.6,2c0.3,0.6,0.7,1.1,1.2,1.6c0.6,0.4,1.3,0.7,2,0.6h14.2
			C410.4,118.6,411.1,118.4,411.6,117.9L411.6,117.9z"/>
		<path class="st1" d="M429.6,112.3c0-0.6,0.1-1.2,0.5-1.8c0.2-0.4,0.7-0.7,1.2-0.7h13.4c0.6,0,1.2,0.2,1.6,0.5
			c0.5,0.3,1,0.8,1.4,1.3c0.4,0.6,0.7,1.3,0.9,2c0.2,0.8,0.3,1.6,0.3,2.5v1.1c0,0.8-0.1,1.7-0.3,2.4c-0.2,0.7-0.5,1.4-0.9,2
			c-0.4,0.5-0.8,1-1.4,1.3c-0.5,0.3-1.1,0.5-1.6,0.5h-18.3c-1,0-1.9-0.3-2.6-1c-0.8-0.8-1.4-1.7-1.9-2.7c-0.6-1.2-1-2.4-1.2-3.6
			c-0.3-1.3-0.4-2.6-0.4-3.9s0.2-2.6,0.4-3.9c0.3-1.3,0.7-2.5,1.3-3.6c0.5-1,1.2-1.9,2-2.7c0.7-0.7,1.7-1,2.7-1h20.5
			c0.5,0,0.9,0.3,1.2,0.7c0.3,0.5,0.5,1.1,0.5,1.8c0,0.6-0.1,1.2-0.5,1.8c-0.2,0.4-0.7,0.7-1.2,0.7h-19.7c-0.7,0-1.4,0.2-2,0.6
			c-0.5,0.4-0.9,1-1.2,1.6c-0.3,0.6-0.5,1.3-0.6,2c-0.2,1.3-0.2,2.7,0,4.1c0.1,0.7,0.3,1.4,0.6,2c0.3,0.6,0.7,1.1,1.2,1.6
			c0.6,0.4,1.3,0.7,2,0.6h17c0.3,0,0.5-0.2,0.8-0.6c0.2-0.4,0.4-0.9,0.3-1.3c0-0.5-0.1-0.9-0.3-1.3c-0.1-0.3-0.4-0.6-0.8-0.6h-13.3
			c-0.5,0-1-0.3-1.2-0.7C429.8,113.5,429.6,112.9,429.6,112.3z"/>
		<path class="st1" d="M455.4,122.8c-0.2,0.4-0.7,0.7-1.2,0.7s-1-0.3-1.2-0.7c-0.3-0.5-0.5-1.1-0.5-1.8v-17.5c0-0.6,0.2-1.2,0.5-1.8
			c0.2-0.4,0.7-0.7,1.2-0.7s0.9,0.3,1.2,0.7c0.3,0.5,0.5,1.1,0.5,1.8v17.6C455.9,121.7,455.7,122.3,455.4,122.8z"/>
		<path class="st1" d="M459.4,112.3c0-1.3,0.2-2.6,0.4-3.9c0.3-1.3,0.7-2.5,1.3-3.6c0.5-1,1.2-1.9,2-2.7c0.7-0.7,1.7-1,2.7-1h20.5
			c0.5,0,0.9,0.3,1.2,0.7c0.3,0.5,0.5,1.1,0.5,1.8c0,0.6-0.1,1.2-0.5,1.8c-0.2,0.4-0.7,0.7-1.2,0.7h-19.7c-0.7,0-1.4,0.2-2,0.6
			c-0.5,0.4-0.9,1-1.2,1.6c-0.3,0.6-0.5,1.3-0.6,2c-0.2,1.3-0.2,2.7,0,4.1c0.1,0.7,0.3,1.4,0.6,2c0.3,0.6,0.7,1.1,1.2,1.6
			c0.6,0.5,1.3,0.7,2,0.6h19.7c0.5,0,1,0.3,1.2,0.7c0.3,0.5,0.5,1.1,0.5,1.8c0,0.6-0.1,1.2-0.5,1.8c-0.2,0.4-0.7,0.7-1.2,0.7h-20.8
			c-1,0-1.9-0.3-2.6-1c-0.8-0.8-1.4-1.7-1.9-2.7c-0.6-1.2-1-2.4-1.2-3.6C459.5,114.9,459.4,113.6,459.4,112.3z"/>
		<path class="st1" d="M494.5,122.6c-0.2,0.5-0.7,0.9-1.3,0.9c-0.5,0-1-0.3-1.2-0.7c-0.3-0.5-0.5-1.1-0.5-1.8c0-0.5,0.1-1,0.4-1.5
			l8.5-16.9c0.4-0.8,0.9-1.4,1.6-1.9c0.6-0.5,1.3-0.7,2.1-0.8c0.7,0,1.4,0.2,2,0.7c0.7,0.5,1.2,1.1,1.5,1.9l8.5,16.8
			c0.1,0.3,0.3,0.5,0.3,0.8c0.1,0.3,0.1,0.7,0.1,1c0,0.6-0.2,1.2-0.5,1.8c-0.2,0.4-0.7,0.7-1.2,0.7c-0.6,0-1.1-0.4-1.3-1l-8.2-16.1
			c-0.2-0.3-0.4-0.6-0.6-0.9c-0.2-0.4-0.7-0.6-1.1-0.4c-0.2,0.1-0.3,0.2-0.4,0.4c-0.2,0.3-0.4,0.6-0.6,0.9L494.5,122.6z
			 M501.9,117.9c0-0.8,0.2-1.6,0.6-2.3c0.4-0.9,1.5-1.2,2.3-0.7c0.3,0.2,0.6,0.4,0.7,0.7c0.9,1.4,0.9,3.2,0,4.6
			c-0.5,0.9-1.5,1.2-2.4,0.7c-0.3-0.2-0.5-0.4-0.7-0.7C502.1,119.6,501.9,118.8,501.9,117.9L501.9,117.9z"/>
		<path class="st1" d="M523,114.2c-0.6-0.4-1.1-0.9-1.5-1.5c-0.4-0.7-0.8-1.4-1-2.2c-0.5-1.8-0.5-3.6,0-5.4c0.2-0.8,0.6-1.5,1-2.2
			c0.4-0.6,0.9-1.1,1.5-1.5c0.5-0.4,1.2-0.5,1.8-0.5h21.3c0.5,0,1,0.3,1.2,0.7c0.3,0.5,0.5,1.1,0.5,1.8c0,0.6-0.1,1.2-0.5,1.8
			c-0.2,0.4-0.7,0.7-1.2,0.7h-21.4c-0.4,0-0.7,0.2-0.9,0.5c-0.3,0.4-0.4,0.9-0.4,1.4s0.1,0.9,0.4,1.3c0.2,0.3,0.5,0.6,0.9,0.6h19.4
			c0.7,0,1.3,0.2,1.8,0.5c0.6,0.4,1.1,0.9,1.5,1.5c0.4,0.7,0.8,1.4,1,2.2c0.3,0.9,0.4,1.8,0.4,2.7c0,0.9-0.1,1.8-0.4,2.7
			c-0.2,0.8-0.6,1.5-1,2.2c-0.4,0.6-0.9,1.1-1.5,1.4s-1.2,0.5-1.8,0.5h-21.3c-0.5,0-1-0.3-1.2-0.7c-0.3-0.5-0.5-1.1-0.5-1.8
			c0-0.6,0.1-1.2,0.5-1.8c0.2-0.4,0.7-0.7,1.2-0.7h21.4c0.4,0,0.7-0.2,0.9-0.5c0.3-0.4,0.4-0.8,0.4-1.3s-0.1-1-0.4-1.4
			c-0.2-0.3-0.5-0.6-0.9-0.6h-19.5C524.2,114.7,523.5,114.6,523,114.2z"/>
		
			<linearGradient id="SVGID_2_" gradientUnits="userSpaceOnUse" x1="30.6" y1="474" x2="127.5" y2="474" gradientTransform="matrix(1 0 0 1 0 -294)">
			<stop  offset="0" style="stop-color:#FFFFFF;stop-opacity:0.32"/>
			<stop  offset="0.54" style="stop-color:#89878C"/>
			<stop  offset="0.6" style="stop-color:#8F8D92;stop-opacity:0.95"/>
			<stop  offset="0.69" style="stop-color:#A09EA2;stop-opacity:0.81"/>
			<stop  offset="0.8" style="stop-color:#BCBABD;stop-opacity:0.57"/>
			<stop  offset="0.92" style="stop-color:#E2E1E2;stop-opacity:0.25"/>
			<stop  offset="1" style="stop-color:#FFFFFF;stop-opacity:0"/>
		</linearGradient>
		<path class="st3" d="M127.5,180c0,2.1-21.7,3.8-48.5,3.8s-48.4-1.7-48.4-3.8s21.7-3.8,48.5-3.8S127.5,177.9,127.5,180z"/>
		<rect x="179.1" y="16.1" class="st4" width="4.9" height="135.9"/>
		<path class="st1" d="M114.4,33.7c0,4.3-3.5,7.8-7.8,7.8s-7.8-3.5-7.8-7.8s3.5-7.8,7.8-7.8S114.4,29.4,114.4,33.7L114.4,33.7z"/>
	</g>
</g>
</svg>
