<svg xmlns="http://www.w3.org/2000/svg" xmlns:xlink="http://www.w3.org/1999/xlink" viewBox="0 0 410.94 308.07"><defs><style>.cls-1,.cls-27,.cls-3{fill:#ffac3c;}.cls-2{fill:#fb6437;}.cls-3{opacity:0.35;}.cls-24,.cls-4{fill:#abe3fe;}.cls-4{opacity:0.65;}.cls-5{fill:#fff;}.cls-6{fill:#1c6a8c;}.cls-10,.cls-11,.cls-13,.cls-14,.cls-15,.cls-17,.cls-18,.cls-20,.cls-21,.cls-26,.cls-30,.cls-7{fill:none;}.cls-13,.cls-14,.cls-15,.cls-20,.cls-21,.cls-7{stroke:#e8502d;}.cls-15,.cls-26,.cls-30,.cls-7{stroke-linecap:round;stroke-linejoin:round;}.cls-7{stroke-width:0.97px;}.cls-25,.cls-8{fill:#38bbff;}.cls-9{clip-path:url(#clip-path);}.cls-10,.cls-11,.cls-17,.cls-18{stroke:#ed8f20;}.cls-10,.cls-11,.cls-13,.cls-14,.cls-17,.cls-18,.cls-20,.cls-21{stroke-miterlimit:10;}.cls-10,.cls-13{stroke-width:1.64px;}.cls-11,.cls-14{stroke-width:0.82px;}.cls-12{clip-path:url(#clip-path-2);}.cls-15{stroke-width:0.78px;}.cls-16{clip-path:url(#clip-path-3);}.cls-17{stroke-width:1.33px;}.cls-18{stroke-width:0.66px;}.cls-19{clip-path:url(#clip-path-4);}.cls-20{stroke-width:1.15px;}.cls-21{stroke-width:0.58px;}.cls-22{fill:#0f4f72;}.cls-23{fill:#114460;}.cls-25{opacity:0.46;}.cls-26{stroke:#fff;}.cls-27{opacity:0.52;}.cls-28{fill:#e84d2a;}.cls-29{fill:#f29525;}.cls-30{stroke:#0e8ec6;stroke-width:0.72px;}</style><clipPath id="clip-path"><path class="cls-1" d="M267.16,246.85S384.72,145.61,406.9,184.42c24.12,42.18-137.52,67-137.52,67Z"/></clipPath><clipPath id="clip-path-2"><path class="cls-2" d="M291,227.7S338.44,80,377.62,101.51c42.59,23.39-82.35,128.91-82.35,128.91Z"/></clipPath><clipPath id="clip-path-3"><path class="cls-1" d="M142,250.86S16.66,246.21,24.85,211c8.9-38.26,118.34,35.92,118.34,35.92Z"/></clipPath><clipPath id="clip-path-4"><path class="cls-2" d="M125.72,247.26S28.21,295.63,19.87,265.4C10.82,232.53,125,243.78,125,243.78Z"/></clipPath></defs><g id="Capa_2" data-name="Capa 2"><g id="OBJECTS"><path class="cls-3" d="M378.12,216.89c31.91-13.76,29.93-52.34,5.38-60.07A66.09,66.09,0,0,0,278.86,78,92.15,92.15,0,0,0,100,64.25a50.42,50.42,0,0,0-60.55,79.59c-34.95,7.1-39.89,55.06-5.38,67.69C107.43,215.68,340.47,219.61,378.12,216.89Z"/><path class="cls-4" d="M378.53,210.56c31.61,7.12,28.82,25.13,4.11,28.23,5.06,4.46,7.9,9.55,7.82,14.91-.25,17.08-30,30.51-66.52,30-18.76-.27-35.63-4.17-47.58-10.22-7.64,20.27-45.73,35.25-91.34,34.59-41.63-.6-76.61-14-87.78-31.95a98,98,0,0,1-24.5,2.61c-27.85-.4-50.27-11.3-50.08-24.34.09-6.69,6.13-12.64,15.74-16.8C3.61,233.51-.31,211,34.45,205.78,107.9,205.4,341,208.49,378.53,210.56Z"/><path class="cls-3" d="M287.76,85.09a42.74,42.74,0,1,0,42.74,42.74A42.74,42.74,0,0,0,287.76,85.09Zm0,71.21a28.47,28.47,0,1,1,28.46-28.47A28.47,28.47,0,0,1,287.76,156.3Z"/><path class="cls-3" d="M98.63,127.38a36.76,36.76,0,1,0,36.76,36.75A36.75,36.75,0,0,0,98.63,127.38Zm0,61.23a24.48,24.48,0,1,1,24.48-24.48A24.48,24.48,0,0,1,98.63,188.61Z"/><path class="cls-3" d="M41.94,154.82a9.31,9.31,0,1,0,9.31,9.31A9.31,9.31,0,0,0,41.94,154.82Z"/><path class="cls-3" d="M131.59,79.16a9.31,9.31,0,1,0,9.3,9.3A9.3,9.3,0,0,0,131.59,79.16Z"/><path class="cls-3" d="M144.67,70.72a3.92,3.92,0,1,0,3.92,3.92A3.92,3.92,0,0,0,144.67,70.72Z"/><path class="cls-3" d="M255.67,78.21a4,4,0,1,0,4,4A4,4,0,0,0,255.67,78.21Z"/><path class="cls-3" d="M293.51,31.09a13.36,13.36,0,1,0,13.37,13.36A13.36,13.36,0,0,0,293.51,31.09Z"/><path class="cls-3" d="M87.38,31.09A11.25,11.25,0,1,0,98.63,42.34,11.24,11.24,0,0,0,87.38,31.09Z"/><path class="cls-3" d="M313.78,75.78a4,4,0,1,0,4,4A4,4,0,0,0,313.78,75.78Z"/><path class="cls-1" d="M216.37,57.84c-2,13.45,9.76,25.21,7.72,31.9,2.75,1.2,18.49,2.11,17.08-5.76-1.81-10.13-2.8-28.37-8.82-31.46S216.38,50.59,216.37,57.84Z"/><path class="cls-5" d="M222.37,84.17c-2.63,1.15-14.2,9.29-16.59,8s-12.92-17.68-13.16-18.66c-.16-.64,1.72-1.85,2-1.47s13.33,14.31,13.33,14.31,13-7.57,17.51-10C227.33,77.24,227.58,81.89,222.37,84.17Z"/><path class="cls-2" d="M244.73,78c-12.55-6.58-19.5-2.18-21.41-1.26-1.12.53-1.94,3.41-1.51,7.07.31,2.61-3.87,5.86,1.43,9.37,5.42,9.8,2.87,18.62,1.71,27.22,2.43,5.26,18.43,3.1,24.29-.58,1-5.93-4.59-9.19-4.23-14.69C247.67,88.56,247.35,78.85,244.73,78Z"/><path class="cls-5" d="M221.13,72.32c1.36.76,3.28-.22,5.48-1.6.28-.1,1,2.06,1.93,4.07.16.35-1.52.62-2.18,1.28-.36.37,1.72,4.1,3.32,4.15,2.46.07,7.23-2.76,9.44-4.2-.23-.47-3.76-1-4.17-1.37-1.29-1.1-2.88-4.81-2.93-5.47-.23-2.73-10.59,0-13.35-13.82-1.2,1.81-1.44,5-.59,7.93A7.34,7.34,0,0,1,215.85,69c-.73.68,2.51.44,3.14-.1C219.47,70.3,220,71.71,221.13,72.32Z"/><path class="cls-5" d="M246.4,84.3c-.07,2.88-1.24,18.52-3.71,19.64S222.2,99.41,221.27,99c-.61-.26-.45-2.49,0-2.45s18,2.18,18,2.18-.74-12.91.32-18.16C240.28,76.79,246.55,77.23,246.4,84.3Z"/><rect class="cls-6" x="235.33" y="97.57" width="2" height="28" rx="0.88" transform="translate(347.91 -124.76) rotate(90)"/><rect class="cls-6" x="221.33" y="101.57" width="4" height="34" rx="1.55"/><rect class="cls-6" x="247.33" y="101.57" width="4" height="34" rx="1.55"/><path class="cls-7" d="M332,85.6s-15.25,54.6-23,128.2"/><path class="cls-8" d="M336.55,84A6.11,6.11,0,1,1,328,82.82,6.12,6.12,0,0,1,336.55,84Z"/><path class="cls-1" d="M267.16,246.85S384.72,145.61,406.9,184.42c24.12,42.18-137.52,67-137.52,67Z"/><g class="cls-9"><line class="cls-10" x1="410.59" y1="182.93" x2="263.63" y2="251.4"/><polyline class="cls-11" points="387.46 170.47 380.34 197.03 405.99 208.98"/><polyline class="cls-11" points="363.99 178.47 355.99 208.3 384.41 220.94"/><polyline class="cls-11" points="340.06 192.25 332.76 219.47 360.7 231.75"/><polyline class="cls-11" points="317.81 202.95 310.69 229.5 336.34 241.46"/></g><path class="cls-2" d="M291,227.7S338.44,80,377.62,101.51c42.59,23.39-82.35,128.91-82.35,128.91Z"/><g class="cls-12"><line class="cls-13" x1="379.99" y1="98.31" x2="290.37" y2="233.42"/><polyline class="cls-14" points="353.76 99.75 361.54 126.12 389.66 122.94"/><polyline class="cls-14" points="337.91 118.83 346.66 148.45 377.5 144.4"/><polyline class="cls-14" points="324.69 143.07 332.67 170.1 362.91 165.99"/><polyline class="cls-14" points="311.3 163.81 319.08 190.18 347.2 186.99"/></g><path class="cls-7" d="M402.69,145.91S354.89,176.39,300,226"/><path class="cls-8" d="M407.14,147.77a6.11,6.11,0,1,1-5.58-6.6A6.11,6.11,0,0,1,407.14,147.77Z"/><path class="cls-15" d="M55.1,186.22s34.13,30,87.06,59.23"/><path class="cls-8" d="M55.43,182.34a4.94,4.94,0,1,1-3.7,5.93A4.94,4.94,0,0,1,55.43,182.34Z"/><path class="cls-15" d="M3.22,236S48,243.81,108.4,241.1"/><path class="cls-1" d="M142,250.86S16.66,246.21,24.85,211c8.9-38.26,118.34,35.92,118.34,35.92Z"/><g class="cls-16"><line class="cls-17" x1="21.85" y1="209.87" x2="146.59" y2="250.1"/><polyline class="cls-18" points="28.7 229.97 47.53 218.15 38.9 196.96"/><polyline class="cls-18" points="47.02 238.14 68.15 224.86 58.26 201.74"/><polyline class="cls-18" points="68.77 243.13 88.06 231.01 78.26 208.37"/><polyline class="cls-18" points="87.84 249.02 106.66 237.2 98.04 216.01"/></g><path class="cls-2" d="M125.72,247.26S28.21,295.63,19.87,265.4C10.82,232.53,125,243.78,125,243.78Z"/><g class="cls-19"><line class="cls-20" x1="17.11" y1="265.77" x2="128.9" y2="244.78"/><polyline class="cls-21" points="30.66 278.26 40.12 261.45 24.77 248.86"/><polyline class="cls-21" points="48.01 276.9 58.63 258.02 41.51 244.48"/><polyline class="cls-21" points="66.67 271.7 76.36 254.46 59.51 241.26"/><polyline class="cls-21" points="83.65 268.29 93.11 251.48 77.76 238.89"/></g><path class="cls-8" d="M1.48,232.52a4.94,4.94,0,1,1-.07,7A4.94,4.94,0,0,1,1.48,232.52Z"/><rect class="cls-22" x="110.33" y="114.57" width="204" height="125" rx="10"/><path class="cls-23" d="M344.71,277.08s-29.43-38.51-32.35-38.51H114.29c-2.41,0-32.35,38.51-32.35,38.51-2.54,3.21.78,10.49,6.48,10.49H338.23C343.93,287.57,347.25,280.29,344.71,277.08Z"/><path class="cls-6" d="M340.66,277.57H85.58c-4.77,0-2.35,8,3.26,8H337.4C343,285.57,345.42,277.57,340.66,277.57Z"/><path class="cls-6" d="M127.5,243.57h-9.36c-1.72,2-3.39,4-5,6h10.51C125,247.6,126.25,245.6,127.5,243.57Z"/><path class="cls-6" d="M166.89,243.57h-8.4q-1.17,3-2.22,6h9.36C166,247.56,166.39,245.56,166.89,243.57Z"/><path class="cls-6" d="M180.22,243.57h-9.58q-.78,3-1.35,6H180.2Q180.26,246.57,180.22,243.57Z"/><path class="cls-6" d="M197.88,243.57l0,6h13.42v-6Z"/><path class="cls-6" d="M195.05,243.57H183.77c0,2,0,4,0,6h11.31Q195.06,246.57,195.05,243.57Z"/><path class="cls-6" d="M154.59,243.57h-8.88q-1.52,3-3.05,6h9.77Q153.45,246.56,154.59,243.57Z"/><path class="cls-6" d="M141.63,243.57h-9.89c-1.2,2-2.45,4-3.74,6h10.56Q140.11,246.59,141.63,243.57Z"/><path class="cls-6" d="M120.7,253.57h-11c-1.59,2-3.18,4-4.8,6h11.37Q118.54,256.6,120.7,253.57Z"/><path class="cls-6" d="M151.08,253.57H140.45c-1,2-2.1,4-3.16,6h11.89Q150.13,256.57,151.08,253.57Z"/><path class="cls-6" d="M165,253.57h-10.2q-1,3-1.93,6h11.38C164.49,257.57,164.73,255.57,165,253.57Z"/><path class="cls-6" d="M180.11,253.57H168.56q-.44,3-.79,6h12C179.94,257.57,180,255.57,180.11,253.57Z"/><path class="cls-6" d="M195.11,253.57H183.63q-.12,3-.28,6h11.8Q195.12,256.57,195.11,253.57Z"/><path class="cls-6" d="M197.94,253.57q0,3,0,6h13.35v-6Z"/><path class="cls-6" d="M136.41,253.57H125.13c-1.41,2-2.86,4-4.33,6h12.43Q134.84,256.58,136.41,253.57Z"/><path class="cls-6" d="M112.11,264.57h-11c-.54.62-1.08,1.24-1.64,1.85q-2,2.11-4,4.15H107.5Z"/><path class="cls-6" d="M130.06,264.57H117.48c-1.53,2-3.07,4-4.61,6h13.82Q128.4,267.58,130.06,264.57Z"/><path class="cls-6" d="M147.16,264.57H135c-1.1,2-2.2,4-3.33,6h13.49Q146.21,267.58,147.16,264.57Z"/><path class="cls-6" d="M163.27,264.57H151.69q-1,3-2,6h12.81C162.8,268.58,163,266.58,163.27,264.57Z"/><path class="cls-6" d="M179.1,264.57H167.62q-.35,3-.73,6h11.83Q178.92,267.57,179.1,264.57Z"/><path class="cls-6" d="M194.77,264.57H183.45q-.18,3-.38,6h11.74Q194.8,267.57,194.77,264.57Z"/><path class="cls-6" d="M299.68,243.57H309c1.72,2,3.39,4,5,6H303.56C302.23,247.6,300.93,245.6,299.68,243.57Z"/><path class="cls-6" d="M260.29,243.57h8.4c.78,2,1.51,4,2.22,6h-9.37C261.19,247.56,260.78,245.56,260.29,243.57Z"/><path class="cls-6" d="M247,243.57h9.58q.8,3,1.35,6H247C246.93,247.57,246.93,245.57,247,243.57Z"/><path class="cls-6" d="M228.78,243.57q0,3,0,6H215.33v-6Z"/><path class="cls-6" d="M232.13,243.57H243.4c0,2,0,4,0,6H232.11Q232.13,246.57,232.13,243.57Z"/><path class="cls-6" d="M272.58,243.57h8.89q1.51,3,3,6h-9.77C274.06,247.56,273.35,245.56,272.58,243.57Z"/><path class="cls-6" d="M285.55,243.57h9.89c1.2,2,2.45,4,3.74,6H288.62Q287.07,246.59,285.55,243.57Z"/><path class="cls-6" d="M306.48,253.57h11c1.6,2,3.19,4,4.81,6H310.88Q308.65,256.6,306.48,253.57Z"/><path class="cls-6" d="M276.1,253.57h10.63q1.56,3,3.16,6H278Q277.06,256.57,276.1,253.57Z"/><path class="cls-6" d="M262.17,253.57h10.2q1,3,1.93,6H262.92Q262.58,256.57,262.17,253.57Z"/><path class="cls-6" d="M247.07,253.57h11.55q.44,3,.78,6h-12Q247.19,256.57,247.07,253.57Z"/><path class="cls-6" d="M232.07,253.57h11.48c.07,2,.17,4,.28,6H232C232,257.57,232.06,255.57,232.07,253.57Z"/><path class="cls-6" d="M228.73,253.57c0,2,0,4,0,6H215.33v-6Z"/><path class="cls-6" d="M290.77,253.57h11.28c1.41,2,2.86,4,4.33,6H294Q292.35,256.58,290.77,253.57Z"/><path class="cls-6" d="M315.07,264.57h11c.54.62,1.08,1.24,1.64,1.85,1.31,1.41,2.65,2.79,4,4.15H319.68Z"/><path class="cls-6" d="M297.12,264.57H309.7c1.53,2,3.07,4,4.6,6H300.49C299.35,268.58,298.22,266.58,297.12,264.57Z"/><path class="cls-6" d="M280,264.57h12.15q1.63,3,3.33,6H282Q281,267.58,280,264.57Z"/><path class="cls-6" d="M263.91,264.57h11.58q1,3,2,6H264.65C264.38,268.58,264.14,266.58,263.91,264.57Z"/><path class="cls-6" d="M248.07,264.57h11.49c.23,2,.46,4,.73,6H248.46Z"/><path class="cls-6" d="M232.4,264.57h11.32l.39,6H232.36Q232.39,267.57,232.4,264.57Z"/><path class="cls-6" d="M227.9,264.57q0,3,0,6H198.33v-6Z"/><rect class="cls-24" x="119.33" y="123.57" width="186" height="106"/><path class="cls-2" d="M115,100.43c0,11.21-9.78,20.72-23.32,24-1.19.29,1.72,3.16,3.39,5.2.9,1.11-.31,1.8-2.19,1.71-8.37-1-10.3-5.65-11.79-5.65-18.72,0-33.91-11.32-33.91-25.29S62.33,75.14,81.05,75.14,115,86.46,115,100.43Z"/><path class="cls-5" d="M96.4,105.87a10.63,10.63,0,0,0,6-7.18c.34-1.36-.55-4-2.75-2.91L94,98.23a2.78,2.78,0,0,1-2.25-5.08s4.2-1.85,5.3-2.26c2.11-1,1.19-3.67-.16-4.34A10.67,10.67,0,0,0,81.43,96.89l-19.72,8.73c-4.36,2.18-1.26,8.51,2.91,6.57l19.72-8.72A10.68,10.68,0,0,0,96.4,105.87Z"/><rect class="cls-25" x="255.33" y="149.57" width="35" height="22" rx="10"/><rect class="cls-5" x="123.33" y="164.57" width="48" height="29" rx="10"/><path class="cls-5" d="M180.69,219.57H126.8a3,3,0,0,1-3-3h0a3,3,0,0,1,3-3h53.89a3,3,0,0,1,3,3h0A3,3,0,0,1,180.69,219.57Z"/><path class="cls-5" d="M288.3,136.57H234.83a2,2,0,0,1-2-2h0a2,2,0,0,1,2-2H288.3a2,2,0,0,1,2,2h0A2,2,0,0,1,288.3,136.57Z"/><path class="cls-5" d="M288.21,144.57h-34a2,2,0,0,1-2-2h0a2,2,0,0,1,2-2h34a2,2,0,0,1,2,2h0A2,2,0,0,1,288.21,144.57Z"/><rect class="cls-25" x="123.33" y="131.57" width="89" height="22" rx="10"/><line class="cls-26" x1="130.83" y1="138.07" x2="205.83" y2="138.07"/><line class="cls-26" x1="130.83" y1="143.07" x2="205.83" y2="143.07"/><line class="cls-26" x1="130.83" y1="148.07" x2="205.83" y2="148.07"/><path class="cls-1" d="M218.92,30.87c0,10.37-9,19.16-21.57,22.22-1,.24,1,2.32,2.54,4.1,1.16,1.35-.33,1.88-1.41,1.72-7.19-1.09-9.57-4.65-10.91-4.65-17.32,0-31.36-10.47-31.36-23.39s14-23.38,31.36-23.38S218.92,18,218.92,30.87Z"/><path class="cls-5" d="M206.67,36.74,190.56,29.6a11.29,11.29,0,0,0,.17-1.94,12.14,12.14,0,1,0-3,8L204,42.82C207.85,44.6,210.71,38.75,206.67,36.74Z"/><circle class="cls-27" cx="178.83" cy="27.07" r="8.5" transform="translate(85.38 181.93) rotate(-67.5)"/><path class="cls-2" d="M241,185.81l-2.64-.46a25.94,25.94,0,0,0-1.71-7.54l2.19-1.53a6.19,6.19,0,0,0,1.5-8.65,6.31,6.31,0,0,0-8.72-1.52l-2.19,1.53a26.14,26.14,0,0,0-6.58-4.14l.45-2.62a6.26,6.26,0,0,0-12.34-2.15l-.45,2.62a26.08,26.08,0,0,0-7.59,1.68l-1.55-2.18a6.32,6.32,0,0,0-8.72-1.51A6.19,6.19,0,0,0,191.1,168l1.55,2.18a25.58,25.58,0,0,0-4.16,6.52l-2.64-.46a6.21,6.21,0,1,0-2.13,12.24l2.64.46a25.56,25.56,0,0,0,1.72,7.54L185.89,198a6.19,6.19,0,0,0-1.51,8.65h0a6.32,6.32,0,0,0,8.73,1.52l2.19-1.53a25.79,25.79,0,0,0,6.58,4.14l-.46,2.63a6.26,6.26,0,0,0,12.34,2.14l.45-2.62a26.22,26.22,0,0,0,7.6-1.68l1.54,2.18a6.32,6.32,0,0,0,8.73,1.51h0a6.19,6.19,0,0,0,1.5-8.65L232,204.11a25.58,25.58,0,0,0,4.16-6.52l2.64.46A6.21,6.21,0,1,0,241,185.81Zm-31.59,18.41a17.34,17.34,0,1,1,20.19-14.09A17.4,17.4,0,0,1,209.37,204.22Z"/><path class="cls-1" d="M283.57,193.09l-1.77.21a17.21,17.21,0,0,0-2.52-4.52l1.1-1.4a4.16,4.16,0,0,0-6.53-5.15l-1.11,1.4a17.1,17.1,0,0,0-5-1.41l-.21-1.77a4.16,4.16,0,0,0-8.27,1l.21,1.78a16.87,16.87,0,0,0-4.51,2.52l-1.4-1.1a4.16,4.16,0,1,0-5.16,6.53l1.4,1.1a17.25,17.25,0,0,0-1.41,5l-1.77.21a4.16,4.16,0,0,0,1,8.27l1.77-.21a17.31,17.31,0,0,0,2.52,4.51l-1.1,1.4a4.18,4.18,0,0,0,.69,5.85h0a4.18,4.18,0,0,0,5.84-.69l1.11-1.4a17.15,17.15,0,0,0,5,1.4l.21,1.77a4.16,4.16,0,1,0,8.26-1l-.21-1.77a17.24,17.24,0,0,0,4.52-2.53l1.4,1.11a4.18,4.18,0,0,0,5.84-.69h0a4.18,4.18,0,0,0-.69-5.85l-1.4-1.1a17.16,17.16,0,0,0,1.41-5l1.77-.21a4.16,4.16,0,0,0-1-8.26ZM267,210.93A11.61,11.61,0,1,1,277.13,198,11.61,11.61,0,0,1,267,210.93Z"/><path class="cls-1" d="M242.44,147.18l-.87.1a8.48,8.48,0,0,0-1.25-2.22l.55-.69a2.05,2.05,0,0,0-3.22-2.54l-.55.69a8.12,8.12,0,0,0-2.45-.69l-.1-.88a2,2,0,0,0-4.07.48l.1.88a8.18,8.18,0,0,0-2.22,1.24l-.69-.54a2,2,0,1,0-2.54,3.21l.69.55a8.12,8.12,0,0,0-.69,2.45l-.87.1a2,2,0,1,0,.48,4.07l.87-.1a8.18,8.18,0,0,0,1.24,2.22l-.54.69a2.05,2.05,0,0,0,.34,2.88h0a2.05,2.05,0,0,0,2.88-.34l.54-.69a8.2,8.2,0,0,0,2.45.69l.1.88a2.06,2.06,0,0,0,2.28,1.79,2,2,0,0,0,1.79-2.27l-.1-.88a8.39,8.39,0,0,0,2.23-1.24l.68.54a2.05,2.05,0,0,0,2.88-.34h0a2,2,0,0,0-.34-2.87l-.69-.55a8.43,8.43,0,0,0,.7-2.45l.87-.1a2,2,0,0,0-.48-4.07ZM234.26,156a5.71,5.71,0,1,1,5-6.34A5.72,5.72,0,0,1,234.26,156Z"/><circle class="cls-2" cx="185.83" cy="96.07" r="7.5" transform="translate(-13.5 159.54) rotate(-45)"/><path class="cls-28" d="M145.86,146.75c2.8.64,21.54-4.79,23.82-6.27s1.73-18.92,1.69-23.25a8.92,8.92,0,0,0-3-.28c-.7,1.6-3.87,17.65-3.87,17.65s-17.87,2.55-21.76,2.54C139.54,137.64,143.06,146.11,145.86,146.75Z"/><path class="cls-8" d="M214.88,89.57h-2.8A26.37,26.37,0,0,0,209,82.11l2-2a6.37,6.37,0,0,0,1.49-6.91A6.53,6.53,0,0,0,201.77,71l-2,2a27,27,0,0,0-7.47-3.09V67a6.37,6.37,0,0,0-3.83-5.94,6.54,6.54,0,0,0-9.17,6v2.78a27.09,27.09,0,0,0-7.46,3.09l-2-2a6.38,6.38,0,0,0-6.91-1.5,6.54,6.54,0,0,0-2.27,10.7l2,2a27,27,0,0,0-3.09,7.46h-2.8a6.37,6.37,0,0,0-5.94,3.83,6.54,6.54,0,0,0,6,9.17h2.78a27,27,0,0,0,3.09,7.47l-2,2a6.51,6.51,0,0,0,0,9.19v.35a3.66,3.66,0,0,0,6.25,2.59l4.91-4.91a26.49,26.49,0,0,0,7.46,3.09v2.8a6.41,6.41,0,0,0,3.83,5.95,6.54,6.54,0,0,0,9.17-6v-2.79a26.43,26.43,0,0,0,7.47-3.09l4.91,4.91a3.66,3.66,0,0,0,6.25-2.59v-.35a6.51,6.51,0,0,0,0-9.19l-2-2a26.43,26.43,0,0,0,3.09-7.47h2.79a6.54,6.54,0,0,0,6-9.17A6.39,6.39,0,0,0,214.88,89.57Zm-29,24.08A17.45,17.45,0,1,1,203.3,96.2,17.45,17.45,0,0,1,185.86,113.65Z"/><path class="cls-1" d="M163.54,247.81c2.84.32,16,2,15.36,0s-15.06-3.91-15.06-3.91S160.7,247.49,163.54,247.81Z"/><path class="cls-1" d="M128.47,252.59c4.13.24,8.19-6.89,7.31-7.72-1.52-1.44-7,3.81-7,3.81S125.61,252.43,128.47,252.59Z"/><path class="cls-8" d="M130.83,177.57s-3.26,72.78-3.26,73.28,3.19.78,3.69-.43c1.74-6.29,13.21-57.55,13.21-57.55l4.68.58,18.67,16.49s-4.56,33.22-4.45,34.43,4.32,1.27,4.63.26,10.9-35.39,10.9-37.49-22.77-29.57-22.77-29.57Z"/><path class="cls-5" d="M150.71,128.89c-.83,1.5-2.34,2.27-5.19,2.27-.46.1-.87,2.68-1.42,4.58s-6.77,1.8-6.43.31,1.39-4.65.68-4.85c-3.23-.9-8.95-7-8.95-12.53,0-7.77,8.09-9.89,13.32-8.13,2.17,1,4.26,3.82,5.18,7a8.1,8.1,0,0,0,5.38,4c1.08.21-1.5,1.57-2.39,1.43C151.8,126.26,151.39,127.67,150.71,128.89Z"/><path class="cls-2" d="M129.4,138.41c12.26-8.53,23.89-1.94,25.89-1.24,5.59,2-5.08,24.19,2.44,42.44-2.44,5.26-22.32,4.5-28.18.83C126.06,159.21,125.76,139.59,129.4,138.41Z"/><path class="cls-29" d="M145.78,111.69s2,.07.18,1.65c-1.28-.92-2.84,1.29-2.39,3.72.36,2,2.73,4.2,2.13,4.51-1.29.68-2.06-.51-2.77-1.46-3,2.06,1,7.69.38,8.89s-3.13,2-5,2.2-1.41-.62-1.9-1-11.24-3.7-10.34-11.4,7.22-13.34,15.78-9.45c-.12-1.58,1.25-2.29,1.89,1C145.17,107.43,146.06,109.1,145.78,111.69Z"/><line class="cls-30" x1="136.4" y1="191.32" x2="149.15" y2="193.12"/><path class="cls-5" d="M186.78,134.55s.27-8.47,1-8.62c1.28-.27.93,3.29,1.67,3.13.36-.08.76-.21,1.31-1.38s.25-6.25,1.69-6c.47,3.15,1.51,5.3,1.15,7.49a22.29,22.29,0,0,1-5.37,6.21Z"/><path class="cls-2" d="M153.23,147.17c2,2,19.87,7.07,22.35,8.19s12.81-17.41,13.53-20.6a3.64,3.64,0,0,0-2.52-1.11c-1.44,1-11.54,12-11.54,12s-16.07-6.2-19.36-8.27C152.71,136.09,151.2,145.14,153.23,147.17Z"/><path class="cls-5" d="M221.27,96.56c-.84-.23-7.41,1-7.49,1.66-.13,1.19,3.07.58,3,1.27,0,.34-.13.71-1.15,1.3s-5.67.73-5.29,2c2.91.17,4.94,1,6.91.45a20.41,20.41,0,0,0,5.23-5.39S222.11,96.79,221.27,96.56Z"/><path class="cls-5" d="M192.11,71c.5-1.53,5.44.93,5.3,1.94s-3.37,2-4.8,1.72S191.6,72.48,192.11,71Z"/><circle class="cls-22" cx="212.83" cy="187.07" r="7.5" transform="translate(-41.45 312.12) rotate(-67.5)"/><path class="cls-2" d="M236.27,150.28a2.69,2.69,0,1,1-2.68-2.68A2.68,2.68,0,0,1,236.27,150.28Z"/><circle class="cls-8" cx="265.83" cy="199.07" r="4.5"/></g></g></svg>